<svg viewBox="0 0 46.25 71.42" xmlns="http://www.w3.org/2000/svg"><path d="m17.86 6.67h1.53v2.49h-1.53z" fill="#f2563d" transform="matrix(.26168386 -.96515364 .96515364 .26168386 6.11 23.82)"/><path d="m20.28 7.06-2.45-1.67.68-1.39 2.24 1.53z" fill="#f2563d"/><path d="m21.09 2.74h1.53v2.49h-1.53z" fill="#f2563d" transform="matrix(.93722114 -.34873563 .34873563 .93722114 -.02 7.87)"/><path d="m23.77 1.76h1.53v2.49h-1.53z" fill="#f2563d" transform="matrix(.94 -.35 .35 .94 .49 8.75)"/><path d="m17.09 9.54h1.53v2.49h-1.53z" fill="#f2563d" transform="matrix(.26168386 -.96515364 .96515364 .26168386 2.77 25.19)"/><path d="m18.79 13.62h-.1a.37.37 0 0 1 -.28-.44l2.11-7.77a.37.37 0 0 1 .24-.26l6.88-2.46-.71-1.8-8.12 3.11-2.34 8.62a.36.36 0 0 1 -.46.27.37.37 0 0 1 -.28-.44l2.39-8.81a.4.4 0 0 1 .23-.26l8.65-3.38a.39.39 0 0 1 .49.22l1 2.49a.39.39 0 0 1 0 .3.34.34 0 0 1 -.22.2l-7.05 2.54-2.06 7.56a.38.38 0 0 1 -.37.31z" fill="#3e3126"/><path d="m28 67h-19a2.35 2.35 0 0 1 -2.35-2.25l-3.06-46.64a2.28 2.28 0 0 1 2.19-2.37h25.36a2.28 2.28 0 0 1 2.28 2.26v.09l-3.06 46.68a2.35 2.35 0 0 1 -2.36 2.23z" fill="#ff7769"/><path d="m33.53 18.11-3 46.65a2.35 2.35 0 0 1 -2.44 2.24h-19a2.36 2.36 0 0 1 -1.65-.67c18.56-10.67 23.29-39.12 24.45-50.5a2.29 2.29 0 0 1 1.64 2.28z" fill="#e52b17"/><path d="m5.88 53.53a.48.48 0 0 1 -.47-.43l-1-15.59a.47.47 0 0 1 .94-.06l1 15.55a.45.45 0 0 1 -.42.5z" fill="#3e3126"/><path d="m28 67.49h-19a2.81 2.81 0 0 1 -2.82-2.7l-.4-6.07a.47.47 0 0 1 .44-.5.48.48 0 0 1 .5.44l.4 6.08a1.88 1.88 0 0 0 1.88 1.81h19a1.88 1.88 0 0 0 1.88-1.8l3.12-46.67a1.81 1.81 0 0 0 -.5-1.32 1.84 1.84 0 0 0 -1.31-.55h-25.32a1.8 1.8 0 0 0 -1.81 1.88l.91 14a.47.47 0 0 1 -.92.18.49.49 0 0 1 0-.12l-.92-14a2.77 2.77 0 0 1 2.67-2.87h25.34a2.77 2.77 0 0 1 2.75 2.79v.07l-3.06 46.66a2.8 2.8 0 0 1 -2.83 2.69z" fill="#3e3126"/><path d="m7.44 45.5a.36.36 0 0 1 -.36-.34l-.42-6.42a.36.36 0 0 1 .43-.3.37.37 0 0 1 .3.3l.41 6.42a.36.36 0 0 1 -.33.39z" fill="#fff"/><ellipse cx="7.61" cy="47.73" fill="#fff" rx=".62" ry=".84" transform="matrix(1 -.07 .07 1 -3.09 .6)"/><path d="m8 26.66h-.12a.3.3 0 0 1 -.17-.39l1.66-3.93a.3.3 0 1 1 .56.24l-1.66 3.92a.32.32 0 0 1 -.27.16z" fill="#3e3126"/><path d="m10.21 24.76h-.12a.31.31 0 0 1 -.17-.4l.88-2.1a.32.32 0 0 1 .4-.16.28.28 0 0 1 .17.37l-.89 2.1a.29.29 0 0 1 -.27.19z" fill="#3e3126"/><circle cx="15.59" cy="59.66" fill="#e52b17" r="2.25"/><circle cx="11.84" cy="60.32" fill="#e52b17" r=".54"/><circle cx="12.72" cy="56.62" fill="#e52b17" opacity=".45" r=".7"/><circle cx="12.96" cy="53.37" fill="#e52b17" opacity=".45" r=".62"/><circle cx="14.51" cy="50.17" fill="#e52b17" opacity=".1" r=".48"/><path d="m7.16 18.51h25v2.73h-22.27a2.73 2.73 0 0 1 -2.73-2.73z" fill="#e52b17"/><path d="m36.63 18.99-1.34-4.01h-15.59-2.39-15.59l-1.34 4.01" fill="#ffeeeb"/><path d="m.38 19.38h-.12a.39.39 0 0 1 -.26-.49l1.34-4a.39.39 0 0 1 .36-.26h25a.39.39 0 0 1 .32.45.36.36 0 0 1 -.32.32h-24.7l-1.26 3.75a.36.36 0 0 1 -.36.23z" fill="#3e3126"/><path d="m9.16 17.09h-6.43a.37.37 0 0 1 -.43-.3.39.39 0 0 1 .31-.43h6.55a.37.37 0 0 1 .37.36.38.38 0 0 1 -.37.37z" fill="#fff"/><ellipse cx="11.77" cy="16.72" fill="#fff" rx=".84" ry=".62"/><circle cx="6.01" cy="55.15" fill="#3e3126" r=".54"/><circle cx="4.64" cy="34.12" fill="#3e3126" r=".54"/><path d="m35.08 19.48h-33.15a.38.38 0 0 1 -.38-.38.4.4 0 0 1 .38-.39h33.15a.4.4 0 0 1 .38.39.38.38 0 0 1 -.38.38z" fill="#3e3126"/><path d="m36.63 19.38a.37.37 0 0 1 -.36-.27l-1.27-3.75h-5.14a.39.39 0 0 1 -.45-.32.4.4 0 0 1 .33-.45h5.55a.39.39 0 0 1 .36.26l1.34 4a.39.39 0 0 1 -.24.49z" fill="#3e3126"/><circle cx="19.67" cy="55.06" fill="#e52b17" r="1.32"/><circle cx="16.91" cy="56.13" fill="#e52b17" r=".63"/><circle cx="15.76" cy="52.7" fill="#e52b17" opacity=".45" r=".53"/><circle cx="15.59" cy="54.38" fill="#e52b17" opacity=".6" r=".53"/><path d="m29.53 31.33.56-1.83 6.62-2.4s4.23 3.67 3.89 3.73-11.07.5-11.07.5z" fill="#fff"/><circle cx="16.24" cy="53.49" fill="#e52b17" opacity=".45" r=".6"/><path d="m44.53 36.43-4.3 32.66a2.28 2.28 0 0 1 -2.23 1.84h-15.56a2.28 2.28 0 0 1 -2.24-1.84l-4.29-32.66" fill="#fff"/><path d="m39.53 36.54-.21 1.2h-23.18v1.14h20.76a1.85 1.85 0 0 1 1.85 1.85 1.37 1.37 0 0 1 0 .29l-3.28 18.98h-16.19l.59 2.1h12.66c1.37 0 2.4 3.87 2.17 5.22l-.32 1.87a2.27 2.27 0 0 1 -2.28 1.81h5.73a2.28 2.28 0 0 0 2.24-1.84l4.28-32.66z" fill="#ffede1"/><path d="m38 71.42h-15.56a2.77 2.77 0 0 1 -2.72-2.23l-4.29-32.7a.49.49 0 0 1 .42-.55.49.49 0 0 1 .55.42l4.28 32.64a1.82 1.82 0 0 0 1.76 1.41h15.56a1.82 1.82 0 0 0 1.75-1.41l4.25-32.61a.5.5 0 0 1 .56-.43.5.5 0 0 1 .44.56l-4.25 32.66a2.8 2.8 0 0 1 -2.75 2.24z" fill="#3e3126"/><path d="m45.81 43.91-2.51 14.55a1.89 1.89 0 0 1 -1.85 1.54h-22.45a1.89 1.89 0 0 1 -1.85-1.56l-2.56-14.53a1.88 1.88 0 0 1 1.53-2.17 1.73 1.73 0 0 1 .32 0h27.56a1.9 1.9 0 0 1 1.88 1.91 2.85 2.85 0 0 1 -.07.26z" fill="#ffa878"/><path d="m35.47 60c2.39-5.29 3.15-18.29 3.15-18.29h5.38a1.88 1.88 0 0 1 1.88 1.87 1.63 1.63 0 0 1 0 .31l-2.59 14.58a1.87 1.87 0 0 1 -1.84 1.53" fill="#ea5706"/><path d="m43.53 59.19a1.9 1.9 0 0 1 -1.44.66h-13.09c5.8-6.77 7.81-13.13 8.13-18.3h2.13l-3.12 18.29h6a1.91 1.91 0 0 0 1.39-.65z" fill="#ea5706" opacity=".25"/><path d="m45.17 48h-.06a.37.37 0 0 1 -.3-.43l.64-3.67a1.52 1.52 0 0 0 -.34-1.23 1.5 1.5 0 0 0 -1.11-.59h-10.17a.37.37 0 0 1 -.43-.3.39.39 0 0 1 .31-.43h10.29a2.25 2.25 0 0 1 2.24 2.26 2.19 2.19 0 0 1 0 .36l-.64 3.67a.37.37 0 0 1 -.43.36z" fill="#3e3126"/><path d="m15.9 51.88a.37.37 0 0 1 -.36-.31l-1.31-7.57a2.24 2.24 0 0 1 1.83-2.59 2.34 2.34 0 0 1 .38 0h11.56a.38.38 0 0 1 .43.31.37.37 0 0 1 -.31.42h-11.68a1.52 1.52 0 0 0 -1.16.54 1.56 1.56 0 0 0 -.28 1.16l1.32 7.61a.35.35 0 0 1 -.29.42h-.13z" fill="#3e3126"/><path d="m41.45 60.38h-22.45a2.23 2.23 0 0 1 -2.21-1.86l-.45-2.61a.36.36 0 0 1 .29-.42.37.37 0 0 1 .42.29l.45 2.6a1.51 1.51 0 0 0 1.5 1.26h22.5a1.48 1.48 0 0 0 1.48-1.25l1.02-6.17a.36.36 0 0 1 .41-.3.37.37 0 0 1 .3.43l-1.06 6.17a2.24 2.24 0 0 1 -2.2 1.86z" fill="#3e3126"/><path d="m39.43 46.82h-.08a.21.21 0 0 1 -.12-.27l1.15-2.71a.21.21 0 0 1 .27-.11.22.22 0 0 1 .11.27l-1.15 2.71a.21.21 0 0 1 -.18.11z" fill="#3e3126"/><path d="m41 45.51h-.08a.21.21 0 0 1 -.12-.26l.61-1.45a.21.21 0 0 1 .27-.11.2.2 0 0 1 .11.26l-.61 1.45a.21.21 0 0 1 -.18.11z" fill="#3e3126"/><g fill="#ea5706"><ellipse cx="36.23" cy="56.35" rx="1.31" ry=".76" transform="matrix(.19988099 -.97982018 .97982018 .19988099 -26.22 80.58)"/><circle cx="35.62" cy="54.24" r=".38"/><circle cx="34.34" cy="58.59" r=".51"/><circle cx="34.13" cy="56.16" opacity=".35" r=".3"/><circle cx="36.53" cy="52.15" r="1.29"/><circle cx="34.9" cy="49.7" r=".32"/><circle cx="34.19" cy="52.14" opacity=".35" r=".63"/><circle cx="36" cy="47.72" opacity=".35" r=".63"/></g><path d="m40.46 30.77a.43.43 0 0 1 -.28-.11l-2.76-2.66a1 1 0 0 0 -1-.25.4.4 0 0 1 -.5-.24.39.39 0 0 1 .24-.49 1.85 1.85 0 0 1 1.81.43l2.77 2.66a.42.42 0 0 1 0 .57.41.41 0 0 1 -.28.09z" fill="#3e3126"/><path d="m29.26 30.53a.41.41 0 0 1 -.39-.41.43.43 0 0 1 .23-.35l4.71-2a.4.4 0 1 1 .41.69h-.1l-4.71 2a.4.4 0 0 1 -.15.07z" fill="#3e3126"/><path d="m19.29 30.12h22a1.52 1.52 0 0 1 1.51 1.51v3.86h-25v-3.87a1.52 1.52 0 0 1 1.49-1.5z" fill="#fff"/><path d="m45.1 37.74h-29.8a.76.76 0 0 1 -.66-1.16 5.93 5.93 0 0 1 5.14-3h20.84a6 6 0 0 1 5.14 3 .78.78 0 0 1 -.27 1.06.87.87 0 0 1 -.39.1z" fill="#fff"/><path d="m39.83 37.59c-.07.33-.42-.17-.47.18h-7.68a4.42 4.42 0 0 0 -2.27-4.14c-1.13-.77-.55-2.58-2-3.38l8.59-.13a2.14 2.14 0 0 1 1.82 3.51c-.35.47 2.83.37 2.01 3.96z" fill="#ffede1"/><path d="m17.79 34.33a.38.38 0 0 1 -.38-.38v-2.33a1.88 1.88 0 0 1 1.88-1.88h22a1.89 1.89 0 0 1 1.89 1.88.4.4 0 0 1 -.32.45.39.39 0 0 1 -.45-.32.29.29 0 0 1 0-.13 1.12 1.12 0 0 0 -1.12-1.12h-22a1.12 1.12 0 0 0 -1.12 1.12v2.38a.38.38 0 0 1 -.38.38z" fill="#3e3126"/><path d="m45.1 38.12h-29.8a1.14 1.14 0 0 1 -1.16-1.12 1.07 1.07 0 0 1 .16-.61 6.39 6.39 0 0 1 5.47-3.13h12.23a.39.39 0 0 1 .32.45.36.36 0 0 1 -.32.29h-12.22a5.58 5.58 0 0 0 -4.78 2.77.39.39 0 0 0 .34.58h29.8a.35.35 0 0 0 .33-.19.39.39 0 0 0 0-.39 5.61 5.61 0 0 0 -4.85-2.77h-3.86a.39.39 0 0 1 0-.77h3.86a6.39 6.39 0 0 1 5.47 3.13 1.15 1.15 0 0 1 -1 1.74z" fill="#3e3126"/><path d="m18.16 53a.33.33 0 0 1 -.32-.26l-.84-4.41a.33.33 0 0 1 .2-.33.33.33 0 0 1 .38.25l.89 4.36a.31.31 0 0 1 -.23.38h-.08z" fill="#fff"/><ellipse cx="16.89" cy="46.5" fill="#fff" rx=".43" ry=".58" transform="matrix(.97964538 -.20073597 .20073597 .97964538 -8.99 4.34)"/><path d="m36.44 56.52h6.56a.34.34 0 1 1 0 .68h-6.6a.34.34 0 1 1 0-.68z" fill="#3e3126"/><path d="m33.42 56.52h.93a.34.34 0 1 1 0 .68h-.93a.34.34 0 1 1 0-.68z" fill="#3e3126"/><circle cx="16.09" cy="53.4" fill="#3e3126" r=".56"/><circle cx="33.78" cy="33.64" fill="#3e3126" r=".56"/><circle cx="44.88" cy="50.04" fill="#3e3126" r=".56"/></svg>